<?xml version="1.0" encoding="UTF-8"?>
<svg version="1.1" xmlns="http://www.w3.org/2000/svg" width="34" height="26">
<path d="M0 0 C1.18529297 -0.03673828 1.18529297 -0.03673828 2.39453125 -0.07421875 C7.76680063 -0.1010354 10.92863838 0.71762061 15.125 4.375 C18.04702617 8.58069084 17.76149352 13.45381838 17.125 18.375 C15.08094157 22.46311686 13.42169155 24.83152828 9.125 26.375 C6.16360589 26.7153032 3.22860329 26.74518804 0.25 26.75 C-0.54019531 26.77449219 -1.33039062 26.79898437 -2.14453125 26.82421875 C-7.51680063 26.8510354 -10.67863838 26.03237939 -14.875 22.375 C-17.79702617 18.16930916 -17.51149352 13.29618162 -16.875 8.375 C-12.87910989 0.38321978 -8.20108545 0.01324893 0 0 Z " fill="#014A13" transform="translate(16.875,-0.375)"/>
<path d="M0 0 C1.5625 1.25 1.5625 1.25 3 3 C2.6875 5.1875 2.6875 5.1875 2 7 C-7.05607477 9.6635514 -7.05607477 9.6635514 -10 10 C-10.66 9.34 -11.32 8.68 -12 8 C-12 7.01 -12 6.02 -12 5 C-11.34 5 -10.68 5 -10 5 C-10 5.99 -10 6.98 -10 8 C-8.68 8 -7.36 8 -6 8 C-5.67 6.68 -5.34 5.36 -5 4 C-3.35 3.67 -1.7 3.34 0 3 C0 2.01 0 1.02 0 0 Z " fill="#002208" transform="translate(21,8)"/>
</svg>
